<svg width="60" height="60" viewBox="0 0 60 60" fill="none" xmlns="http://www.w3.org/2000/svg">
<path d="M12.5 32.0585C12.5 31.0494 12.5 30.5448 12.7217 30.1141C12.9433 29.6833 13.3539 29.3901 14.175 28.8035L28.8375 18.3303C29.3989 17.9294 29.6795 17.7289 30 17.7289C30.3205 17.7289 30.6011 17.9294 31.1625 18.3303L45.825 28.8035C46.6461 29.3901 47.0567 29.6833 47.2783 30.1141C47.5 30.5448 47.5 31.0494 47.5 32.0585V50.5C47.5 51.4428 47.5 51.9142 47.2071 52.2071C46.9142 52.5 46.4428 52.5 45.5 52.5H14.5C13.5572 52.5 13.0858 52.5 12.7929 52.2071C12.5 51.9142 12.5 51.4428 12.5 50.5V32.0585Z" fill="#7E869E" fill-opacity="0.25"/>
<path d="M7.5 31.8866C7.5 32.1535 7.5 32.2869 7.5841 32.3281C7.66819 32.3692 7.77352 32.2873 7.98418 32.1234L28.7721 15.955C29.362 15.4962 29.6569 15.2669 30 15.2669C30.3431 15.2669 30.638 15.4962 31.2279 15.955L52.0158 32.1234C52.2265 32.2873 52.3318 32.3692 52.4159 32.3281C52.5 32.2869 52.5 32.1535 52.5 31.8866V28.4782C52.5 27.9978 52.5 27.7576 52.3983 27.5497C52.2966 27.3418 52.107 27.1944 51.7279 26.8995L31.2279 10.955C30.638 10.4962 30.3431 10.2669 30 10.2669C29.6569 10.2669 29.362 10.4962 28.7721 10.955L8.27212 26.8995C7.89295 27.1944 7.70337 27.3418 7.60168 27.5497C7.5 27.7576 7.5 27.9978 7.5 28.4782V31.8866Z" fill="#222222"/>
<path d="M34.25 37.5H25.75C24.6454 37.5 23.75 38.3954 23.75 39.5V52.35C23.75 52.4328 23.8172 52.5 23.9 52.5H36.1C36.1828 52.5 36.25 52.4328 36.25 52.35V39.5C36.25 38.3954 35.3546 37.5 34.25 37.5Z" fill="#222222"/>
<rect x="40" y="12.5" width="5" height="10" rx="0.5" fill="#222222"/>
</svg>
